<svg xmlns="http://www.w3.org/2000/svg" width="24" height="24" viewBox="0 0 24 24" fill="none" stroke="currentColor" stroke-width="2" stroke-linecap="round" stroke-linejoin="round" class="lucide lucide-cloud-moon">
  <path d="M10 7a5 5 0 1 0 7.9 6h.1a3 3 0 0 0 3-3 3 3 0 0 0-3-3h-.1A5 5 0 0 0 10 7" fill="#E2E8F0" stroke="#718096"/>
  <path d="M10 7V5.5a3.5 3.5 0 0 1 7 0v1" stroke="#4A5568"/>
  <path d="M8.7 10.5c-.5.9-.2 2 .6 2.6 1.1.9 1.7 2.3 1.7 3.9 0 3-2.7 5-5.5 5S0 20 0 17c0-1.6.6-3 1.7-3.9.8-.6 1.1-1.7.6-2.6" fill="#4A5568" stroke="#4A5568"/>
</svg> 